<svg id="Capa_1" enable-background="new 0 0 511.908 511.908" height="512" viewBox="0 0 511.908 511.908" width="512" xmlns="http://www.w3.org/2000/svg"><g><g><g id="XMLID_121_"><g><path d="m70.174 237.787-2.656 76.797 13.37 4.359 32.96 14.16c15.66 6.73 31.84 11.86 48.28 15.38l8.51-8.784v-68.344z" fill="#e2dee2"/><path d="m105.888 329.684v-79.964l-35.714-11.933-2.656 76.797 13.37 4.359z" fill="#cbc4cc"/><path d="m61.48 172.582v69.31l19.408 11.941 32.96 14.16c15.66 6.73 31.84 11.86 48.28 15.39l8.51-17.824 1.449-56.994z" fill="#7a6d79"/><path d="m408.018 193.703-13.482-14.108-56.354 5.028-31.843 11.731 5.028 83.17 91.34-10.056 5.311-10.645 24.143-7.982v-35.131z" fill="#e2dee2"/><path d="m105.888 264.574v-77.545l-44.408-14.447v69.311l19.408 11.94z" fill="#685e68"/><path d="m63.772 111.513-1.124 61.45 18.24 15.761 32.96 14.16c15.66 6.73 31.84 11.86 48.28 15.39l8.51-7.848 3.924-70.705z" fill="#e2dee2"/><path d="m184.595 140.866-22.467 12.297v65.11l11.465 20.903h90.82v-98.31z" fill="#7a6d79"/><path d="m479.148 77.603c-23.09-8.05-47.04-12.75-71.13-14.11l-21.107 16.158v36.754l21.107 12.198 11.632 14.66 54.36 9.9 7.608-9.9v-62.16c0-1.57-.99-2.98-2.47-3.5z" fill="#7a6d79"/><path d="m244.088 222.643c-27.35 2.87-55.02 1.41-81.96-4.37v65.11l16.522 26.67h59.021l6.417-22.3 21.469-14.57v-26.172z" fill="#e2dee2"/><path d="m317.663 190.021-62.035 16.999-11.54 15.623v65.11l21.469 23.907 53.163-23.907 7.338-20.51v-65.11z" fill="#7a6d79"/><path d="m326.058 137.023-11.925-8.84-47.744 6.972-22.3 22.378v65.11c20.66-2.17 41.14-6.82 61-13.96 6.92-2.49 13.91-4.67 20.97-6.55l13.794-15.485v-36.57z" fill="#e2dee2"/><path d="m326.058 71.913c-7.06 1.88-14.05 4.06-20.97 6.55-19.85 7.14-40.34 11.8-61 13.97l-16.071 19.079v38.568l16.071 7.453c20.66-2.17 41.14-6.82 61-13.96 6.92-2.49 13.91-4.67 20.97-6.55l17.999-15.569v-32.468z" fill="#7a6d79"/><path d="m105.888 199.464v-77.228l-42.116-10.723-1.124 61.449 18.24 15.761z" fill="#cbc4cc"/><path d="m162.128 88.063c-16.44-3.53-32.61-8.66-48.28-15.39l-32.96-14.16-11.155-2.314v51.677l11.155 15.736 32.96 14.17c15.66 6.73 31.84 11.86 48.28 15.38l15.588-5.488v-39.148z" fill="#7a6d79"/></g></g><g id="XMLID_118_"><g><g><path d="m105.888 134.361v-65.107l-25-10.741-11.154-2.314v51.678l11.154 15.736z" fill="#685e68"/><path d="m80.888 18.023v479.083c0 4.03-3.267 7.297-7.297 7.297h-21.886c-4.03 0-7.297-3.267-7.297-7.297v-479.083z" fill="#f3f0f3"/></g></g></g><path d="m78.744 40.027h-32.192c-8.982 0-16.263-7.281-16.263-16.263 0-8.982 7.281-16.263 16.263-16.263h32.192c8.982 0 16.263 7.281 16.263 16.263 0 8.981-7.281 16.263-16.263 16.263z" fill="#cbc4cc"/><path d="m59.006 23.763c0-8.982 7.281-16.263 16.263-16.263h-28.717c-8.982 0-16.263 7.281-16.263 16.263 0 8.982 7.281 16.263 16.263 16.263h28.718c-8.982.001-16.264-7.281-16.264-16.263z" fill="#b5adb6"/><g fill="#e2dee2"><path d="m244.088 92.433v65.1c-27.35 2.88-55.02 1.41-81.96-4.37v-65.1c18.01 3.86 36.34 5.8 54.68 5.8 9.1 0 18.21-.48 27.28-1.43z"/><path d="m326.058 71.913v65.11l16.263 20.51h59.076l6.622-28.93v-65.11c-27.481-1.55-55.151 1.25-81.961 8.42z"/><path d="m480.738 143.263c-23.59-8.39-48.08-13.28-72.72-14.66l-12.114 14.154v68.754l79.332 9.186 6.382-12.624v-64.81z"/></g><path d="m408.018 128.603v65.1c-4.89-.27-9.77-.41-14.66-.41-22.63 0-45.26 2.94-67.3 8.84v-65.11c22.04-5.9 44.67-8.84 67.29-8.84 4.89 0 9.78.14 14.67.42z" fill="#7a6d79"/><path d="m479.908 208.073c-23.32-8.21-47.54-13-71.89-14.37v65.12l20.591 27.442 39.721 3.972 13.288-17.054v-65.11z" fill="#7a6d79"/><path d="m244.088 287.753c-27.35 2.87-55.02 1.41-81.96-4.37v65.1c26.94 5.79 54.61 7.25 81.96 4.38l16.485-14.238v-28.572z" fill="#7a6d79"/><path d="m345.428 283.383-19.37-16.14c-7.06 1.88-14.05 4.06-20.97 6.55-19.86 7.14-40.34 11.79-61 13.96v65.11c20.66-2.17 41.14-6.82 61-13.96 6.92-2.49 13.91-4.68 20.97-6.56l21.175-13.507z" fill="#e2dee2"/><path d="m432.161 280.594-24.143-21.771c-4.89-.28-9.78-.42-14.68-.42-22.62 0-45.24 2.94-67.28 8.84v65.1c22.04-5.89 44.65-8.83 67.27-8.83 4.9 0 9.8.14 14.69.41l25.36-10.832z" fill="#7a6d79"/><path d="m481.618 273.183v60.54c0 2.51-2.47 4.3-4.85 3.5-22.36-7.55-45.49-11.98-68.75-13.3v-65.1c24.36 1.37 48.56 6.16 71.89 14.36z" fill="#e2dee2"/></g><path d="m44.406 511.908c-4.142 0-7.5-3.358-7.5-7.5v-395.998c0-4.142 3.358-7.5 7.5-7.5s7.5 3.358 7.5 7.5v395.998c0 4.142-3.357 7.5-7.5 7.5z"/><path d="m481.615 70.525c-57.85-20.154-121.445-19.841-179.07.886-60.604 21.796-126.566 19.797-185.737-5.629l-28.418-12.212v-8.097c8.308-3.706 14.117-12.04 14.117-21.71 0-13.103-10.66-23.763-23.763-23.763h-32.192c-13.103 0-23.763 10.66-23.763 23.763 0 9.67 5.809 18.004 14.118 21.71v30.975c0 4.142 3.358 7.5 7.5 7.5s7.5-3.358 7.5-7.5v-28.921h21.483v456.881c0 4.142 3.358 7.5 7.5 7.5s7.5-3.358 7.5-7.5v-174.08l22.496 9.667c23.999 10.313 49.362 17.054 75.386 20.035.29.033.578.049.863.049 3.76 0 7.004-2.822 7.442-6.647.472-4.115-2.482-7.833-6.598-8.305-6.161-.706-12.283-1.635-18.354-2.785v-49.794c15.585 2.798 31.353 4.2 47.137 4.2 6.611 0 13.224-.261 19.828-.754v50.002c-5.831.454-11.688.718-17.567.77-4.142.036-7.47 3.423-7.434 7.565.036 4.12 3.386 7.435 7.498 7.435h.067c30.273-.263 60.039-5.582 88.47-15.808 53.567-19.268 112.786-19.846 166.747-1.627 3.398 1.147 7.166.581 10.082-1.512 2.923-2.099 4.668-5.499 4.668-9.097v-252.619c-.002-4.764-3.018-9.015-7.506-10.578zm-393.225 129.586 22.496 9.667c14.258 6.127 28.889 10.953 43.738 14.506v49.657c-12.827-3.262-25.471-7.532-37.816-12.837l-28.418-12.211zm28.418-4.114-28.418-12.212v-48.782l22.496 9.667c14.258 6.127 28.889 10.953 43.738 14.506v49.658c-12.826-3.262-25.47-7.532-37.816-12.837zm52.816-33.665c15.585 2.798 31.353 4.2 47.137 4.2 6.611 0 13.224-.261 19.828-.754v50.061c-22.372 1.767-44.874.54-66.965-3.669zm81.965 1.913c18.941-2.493 37.72-7.025 56.034-13.611 3.62-1.302 7.266-2.513 10.932-3.645v49.461c-5.399 1.564-10.744 3.283-16.009 5.176-16.664 5.994-33.734 10.177-50.957 12.58zm56.034 51.496c3.608-1.298 7.254-2.514 10.932-3.649v49.454c-5.38 1.559-10.72 3.285-16.009 5.187-16.664 5.993-33.734 10.177-50.956 12.579v-49.961c18.94-2.492 37.719-7.024 56.033-13.61zm25.931-7.762c6.312-1.531 12.685-2.837 19.096-3.881 4.088-.666 6.863-4.519 6.197-8.607s-4.52-6.862-8.607-6.197c-5.593.91-11.159 2.012-16.686 3.274v-49.71c21.953-5.319 44.493-7.651 66.965-7.018v50.07c-5.781-.151-11.581-.13-17.397.092-4.139.158-7.366 3.642-7.208 7.781.158 4.138 3.604 7.362 7.781 7.208 5.625-.215 11.234-.234 16.825-.08v50.146c-22.458-.596-44.974 1.612-66.965 6.623v-49.701zm140.565-9.726c-19.12-6.043-38.716-9.904-58.6-11.539v-50.015c19.855 1.735 39.539 5.808 58.6 12.217zm-58.6 3.521c19.914 1.736 39.52 5.834 58.6 12.257v49.331c-19.111-6.026-38.778-9.868-58.6-11.501zm58.6-68.629c-19.115-6.028-38.781-9.869-58.6-11.503v-50.031c19.858 1.736 39.547 5.794 58.6 12.202zm-73.6-62.405v50.095c-22.456-.596-44.97 1.614-66.965 6.627v-49.707c21.943-5.311 44.487-7.649 66.965-7.015zm-92.896 14.785c3.619-1.302 7.266-2.511 10.932-3.642v49.448c-5.379 1.559-10.719 3.284-16.009 5.187-16.664 5.994-33.734 10.177-50.956 12.58v-49.966c18.94-2.493 37.718-7.02 56.033-13.607zm-71.034 15.142v50.064c-22.372 1.767-44.874.54-66.965-3.669v-49.853c22.115 3.97 44.597 5.126 66.965 3.458zm-125.703-21.104c14.257 6.126 28.888 10.954 43.738 14.508v49.656c-12.827-3.262-25.471-7.532-37.816-12.837l-28.418-12.212v-48.782zm-64.334-47.036c-4.832 0-8.763-3.931-8.763-8.764 0-4.832 3.931-8.763 8.763-8.763h32.192c4.832 0 8.763 3.931 8.763 8.763 0 4.833-3.931 8.764-8.763 8.764zm108.072 306.493c-12.912-3.266-25.555-7.538-37.816-12.807l-28.418-12.212v-48.782l22.496 9.667c14.258 6.127 28.889 10.953 43.738 14.506zm15-61.743v-49.837c15.585 2.798 31.353 4.2 47.137 4.2 6.611 0 13.224-.261 19.828-.754v50.06c-22.372 1.767-44.874.54-66.965-3.669zm132.921 54.564c-16.565 5.958-33.613 10.146-50.956 12.542v-49.923c18.941-2.493 37.72-7.025 56.033-13.611 3.62-1.302 7.266-2.513 10.932-3.644v49.451c-5.381 1.558-10.722 3.284-16.009 5.185zm31.009-9.057v-49.711c21.949-5.316 44.491-7.645 66.965-7.014v50.125c-22.465-.597-44.99 1.601-66.965 6.6zm81.965-5.794v-50.069c19.858 1.734 39.543 5.806 58.6 12.214v49.334c-19.097-6.024-38.771-9.847-58.6-11.479z"/></g></svg>