<svg id="Capa_1" enable-background="new 0 0 497 497" height="512" viewBox="0 0 497 497" width="512" xmlns="http://www.w3.org/2000/svg"><path d="m311.286 240.324v68.297c-26.413-7.211-52.835-16.392-79.248-23.602v-68.297c26.413 7.21 52.835 16.391 79.248 23.602z" fill="#4f4c5f"/><path d="m152.79 204.921v68.297c-26.413.65-52.825 7.211-79.238 23.602l-23.163-34.148 23.163-34.148c26.413-16.393 52.825-22.953 79.238-23.603z" fill="#4f4c5f"/><path d="m232.038 216.722v68.297c-26.413-7.211-52.835-12.461-79.248-11.801v-68.297c26.413-.661 52.835 4.58 79.248 11.801z" fill="#e8e8e8"/><path d="m232.038 148.471v68.297c-26.413-7.211-52.835-12.461-79.248-11.801v-68.297c26.413-.66 52.835 4.58 79.248 11.801z" fill="#4f4c5f"/><path d="m152.79 68.307v68.297c-26.413.65-52.825 7.211-79.238 23.602l-23.163-36.896 23.163-31.401c26.413-16.391 52.825-22.952 79.238-23.602z" fill="#4f4c5f"/><path d="m232.038 80.22v68.297c-26.413-7.211-52.835-12.461-79.248-11.801v-68.297c26.413-.66 52.835 4.58 79.248 11.801z" fill="#e8e8e8"/><path d="m232.038 11.969v68.297c-26.413-7.211-52.835-12.461-79.248-11.801v-68.297c26.413-.66 52.835 4.581 79.248 11.801z" fill="#4f4c5f"/><g fill="#e8e8e8"><path d="m152.79 136.614v68.297c-26.413.65-52.825 7.211-79.238 23.602l-23.163-36.225 23.163-32.072c26.413-16.392 52.825-22.952 79.238-23.602z"/><path d="m152.79 0v68.297c-26.413.65-52.825 7.211-79.238 23.602l-23.163-38.033 23.163-30.264c26.413-16.391 52.825-22.952 79.238-23.602z"/><path d="m390.524 252.125v68.297c-26.413.66-52.825-4.58-79.238-11.801v-68.297c26.413 7.211 52.825 12.461 79.238 11.801z"/></g><path d="m469.772 228.523v59.286c0 5.691-3.06 10.981-8.061 13.711-23.722 12.961-47.455 18.322-71.187 18.902v-68.297c26.423-.65 52.825-7.21 79.248-23.602z" fill="#4f4c5f"/><path d="m390.524 183.847v68.297c-26.413.66-52.825-4.58-79.238-11.801v-68.297c26.413 7.21 52.825 12.461 79.238 11.801z" fill="#4f4c5f"/><path d="m390.524 252.144v-68.297c26.423-.65 52.825-7.211 79.248-23.602v68.279c-26.423 16.392-52.825 22.952-79.248 23.602" fill="#e8e8e8"/><path d="m390.524 183.865v-68.297c26.423-.65 52.825-7.211 79.248-23.602v68.279c-26.423 16.392-52.825 22.952-79.248 23.602" fill="#4f4c5f"/><path d="m390.524 115.568v68.297c-26.413.66-52.825-4.58-79.238-11.801v-68.297c26.413 7.211 52.825 12.461 79.238 11.801z" fill="#e8e8e8"/><path d="m390.524 47.289v68.297c-26.413.66-52.825-4.58-79.238-11.801v-68.297c26.413 7.211 52.825 12.462 79.238 11.801z" fill="#4f4c5f"/><path d="m450.464 33.973c-19.98 8.951-39.954 12.825-59.94 13.316v68.279c26.423-.65 52.825-7.211 79.248-23.602v-45.579c0-9.932-10.244-16.475-19.308-12.414z" fill="#e8e8e8"/><path d="m311.286 172.022v68.297c-26.413-7.211-52.835-16.392-79.248-23.602v-68.297c26.413 7.21 52.835 16.391 79.248 23.602z" fill="#e8e8e8"/><path d="m311.286 103.72v68.297c-26.413-7.211-52.835-16.392-79.248-23.602v-68.297c26.413 7.211 52.835 16.392 79.248 23.602z" fill="#4f4c5f"/><path d="m311.286 35.418v68.297c-26.413-7.211-52.835-16.392-79.248-23.602v-68.297c26.413 7.211 52.835 16.392 79.248 23.602z" fill="#e8e8e8"/><path d="m50.389 262.671 23.163 34.148c9.999-6.205 19.999-11 29.998-14.6v-68.297c-9.999 3.6-19.999 8.395-29.998 14.6z" fill="#423e4f"/><path d="m50.389 192.288 23.163 36.225c9.999-6.206 19.999-11 29.998-14.6v-68.297c-9.999 3.6-19.999 8.394-29.998 14.6z" fill="#c7c5cb"/><path d="m50.389 123.31 23.163 36.896c9.999-6.206 19.999-11 29.998-14.6v-68.297c-9.999 3.6-19.999 8.395-29.998 14.6z" fill="#423e4f"/><path d="m50.389 53.866 23.163 38.033c9.999-6.206 19.999-11 29.998-14.6v-53.688c0-4.815-.825-9.438-2.322-13.75-9.225 3.493-18.451 8.016-27.676 13.741z" fill="#c7c5cb"/><path d="m61.523 11.585h-22.269c-6.642 0-12.026 5.384-12.026 12.026v461.363c0 6.642 5.384 12.026 12.026 12.026h22.269c6.642 0 12.026-5.384 12.026-12.026v-461.363c.001-6.642-5.384-12.026-12.026-12.026z" fill="#358bd8"/></svg>