<svg height="512pt" viewBox="0 0 512 511" width="512pt" xmlns="http://www.w3.org/2000/svg"><path d="m427 98.453125c0 8.285156-6.714844 15-15 15s-15-6.714844-15-15 6.714844-15 15-15 15 6.714844 15 15zm0 0"/><path d="m115 355.453125c0 8.285156-6.714844 15-15 15s-15-6.714844-15-15 6.714844-15 15-15 15 6.714844 15 15zm0 0"/><path d="m433 353.453125h-124c-27.019531 0-49-21.980469-49-49s21.980469-49 49-49h103v-13.800781l70.707031-70.632813c18.890625-18.871093 29.292969-43.964843 29.292969-70.652343 0-26.691407-10.402344-51.785157-29.292969-70.65625h-.003906c-38.984375-38.949219-102.421875-38.949219-141.410156 0-18.890625 18.871093-29.292969 43.964843-29.292969 70.65625 0 26.6875 10.402344 51.78125 29.292969 70.652343l54.488281 54.433594h-86.78125c-43.5625 0-79 35.4375-79 79 0 43.558594 35.4375 79 79 79h124c27.019531 0 49 21.980469 49 49v1c0 27.015625-21.980469 49-49 49h-316.78125l54.488281-54.433594c18.890625-18.871093 29.292969-43.964843 29.292969-70.652343 0-26.691407-10.402344-51.785157-29.292969-70.65625h-.003906c-38.984375-38.949219-102.421875-38.949219-141.410156 0-18.890625 18.871093-29.292969 43.964843-29.292969 70.65625 0 26.6875 10.402344 51.78125 29.292969 70.652343l70.707031 70.632813v13.800781h333c43.5625 0 79-35.441406 79-79v-1c0-43.5625-35.4375-79-79-79zm-91-253.085937c0-18.671876 7.277344-36.230469 20.496094-49.433594 13.648437-13.632813 31.574218-20.449219 49.503906-20.449219s35.855469 6.816406 49.503906 20.449219c13.21875 13.207031 20.496094 30.761718 20.496094 49.433594 0 18.671874-7.277344 36.226562-20.496094 49.429687l-49.503906 49.453125-49.503906-49.453125c-13.21875-13.203125-20.496094-30.757813-20.496094-49.429687zm-291.503906 306.429687c-13.21875-13.203125-20.496094-30.757813-20.496094-49.429687 0-18.671876 7.277344-36.230469 20.496094-49.433594 13.648437-13.632813 31.574218-20.449219 49.503906-20.449219s35.855469 6.816406 49.503906 20.449219c13.21875 13.207031 20.496094 30.761718 20.496094 49.433594 0 18.671874-7.277344 36.226562-20.496094 49.429687l-49.503906 49.453125zm0 0"/></svg>